<svg width="20" height="20" viewBox="0 0 20 20" fill="none" xmlns="http://www.w3.org/2000/svg">
<g style="mix-blend-mode:darken">
<path fill-rule="evenodd" clip-rule="evenodd" d="M9 0C7.89543 0 7 0.895431 7 2V3.67363C6.65787 3.83616 6.33101 4.02563 6.02216 4.23929L4.5718 3.40192C3.61521 2.84964 2.39203 3.17739 1.83975 4.13397L0.839749 5.86602C0.287464 6.82261 0.615215 8.04579 1.5718 8.59808L3.02242 9.43559C3.00757 9.62177 3 9.81 3 10C3 10.19 3.00757 10.3782 3.02242 10.5644L1.5718 11.4019C0.615213 11.9542 0.287463 13.1774 0.839748 14.134L1.83975 15.866C2.39203 16.8226 3.61521 17.1504 4.5718 16.5981L6.02216 15.7607C6.33101 15.9744 6.65787 16.1638 7 16.3264V18C7 19.1046 7.89543 20 9 20H11C12.1046 20 13 19.1046 13 18V16.3264C13.3421 16.1638 13.669 15.9744 13.9778 15.7607L15.4282 16.5981C16.3848 17.1504 17.608 16.8226 18.1603 15.866L19.1603 14.134C19.7125 13.1774 19.3848 11.9542 18.4282 11.4019L16.9776 10.5644C16.9924 10.3782 17 10.19 17 10C17 9.81 16.9924 9.62177 16.9776 9.4356L18.4282 8.59808C19.3848 8.04579 19.7125 6.82261 19.1603 5.86603L18.1603 4.13398C17.608 3.17739 16.3848 2.84964 15.4282 3.40192L13.9778 4.23929C13.669 4.02563 13.3421 3.83616 13 3.67363V2C13 0.895431 12.1046 0 11 0H9Z" fill="white"/>
</g>
<circle cx="10" cy="10" r="3" fill="#828282"/>
</svg>
