<svg width="1706" height="1706" viewBox="0 0 1706 1706" fill="none" xmlns="http://www.w3.org/2000/svg">
<path d="M1019 253H726C556.449 253 419 390.449 419 560V1146C419 1315.55 556.449 1453 726 1453H1019" stroke="#DEDEDE" stroke-width="60" stroke-linecap="round"/>
<path d="M652 823C635.431 823 622 836.431 622 853C622 869.569 635.431 883 652 883V823ZM1307.71 874.213C1319.43 862.497 1319.43 843.503 1307.71 831.787L1116.79 640.868C1105.08 629.152 1086.08 629.152 1074.37 640.868C1062.65 652.584 1062.65 671.579 1074.37 683.294L1244.07 853L1074.37 1022.71C1062.65 1034.42 1062.65 1053.42 1074.37 1065.13C1086.08 1076.85 1105.08 1076.85 1116.79 1065.13L1307.71 874.213ZM652 883H1286.5V823H652V883Z" fill="#DEDEDE"/>
</svg>
