<svg width="13" height="15" viewBox="0 0 13 15" fill="none" xmlns="http://www.w3.org/2000/svg">
<path fill-rule="evenodd" clip-rule="evenodd" d="M5.85145 12.2126V7.49642C5.85145 7.22028 6.07531 6.99642 6.35145 6.99642C6.62759 6.99642 6.85145 7.22028 6.85145 7.49642V12.2126L11.0412 13.6091C11.4482 13.7448 11.8258 13.3385 11.6608 12.9425L6.81299 1.30769C6.64205 0.897436 6.06085 0.897435 5.88991 1.30769L1.04208 12.9425C0.87706 13.3385 1.25471 13.7448 1.66173 13.6091L5.85145 12.2126ZM10.7249 14.5578L6.35145 13.1L1.97795 14.5578C0.756885 14.9649 -0.376046 13.746 0.119 12.5579L4.96684 0.923077C5.47966 -0.307692 7.22325 -0.307693 7.73607 0.923077L12.5839 12.5579C13.0789 13.746 11.946 14.9649 10.7249 14.5578Z" fill="white"/>
</svg>
