<svg width="1706" height="1706" viewBox="0 0 1706 1706" fill="none" xmlns="http://www.w3.org/2000/svg">
<path d="M852.5 1705.72C441.876 1705.72 109 1373.1 109 962.798C109 690.463 255.65 452.354 474.346 323.014C538.268 285.209 611.681 336.92 611.681 411.186C611.681 452.28 587.874 489.072 553.625 511.781C407.261 608.828 311.241 774.754 311.241 962.798C311.241 1261.49 553.571 1503.63 852.5 1503.63C1151.43 1503.63 1393.76 1261.49 1393.76 962.798C1393.76 771.336 1294.19 603.111 1143.97 507.001C1113.92 487.772 1093.32 455.751 1093.32 420.071V391.196C1093.32 326.732 1156.97 281.761 1213.32 313.072C1441.56 439.898 1596 683.327 1596 962.798C1596 1373.1 1263.12 1705.72 852.5 1705.72Z" fill="white"/>
<path d="M852.5 1705.72C441.876 1705.72 109 1373.1 109 962.798C109 690.463 255.65 452.354 474.346 323.014C538.268 285.209 611.681 336.92 611.681 411.186C611.681 452.28 587.874 489.072 553.625 511.781C407.261 608.828 311.241 774.754 311.241 962.798C311.241 1261.49 553.571 1503.63 852.5 1503.63C1151.43 1503.63 1393.76 1261.49 1393.76 962.798C1393.76 771.336 1294.19 603.111 1143.97 507.001C1113.92 487.772 1093.32 455.751 1093.32 420.071V391.196C1093.32 326.732 1156.97 281.761 1213.32 313.072C1441.56 439.898 1596 683.327 1596 962.798C1596 1373.1 1263.12 1705.72 852.5 1705.72Z" stroke="white"/>
<path d="M852 139L852.148 874.907" stroke="white" stroke-width="187" stroke-linecap="round"/>
</svg>
