<svg width="1706" height="1706" viewBox="0 0 1706 1706" fill="none" xmlns="http://www.w3.org/2000/svg">
<path d="M1095.87 491.091C1162.87 593.282 1199.55 722.072 1199.55 855.068C1199.55 988.064 1162.87 1116.85 1095.87 1219.05M1240.33 306C1345.16 457.093 1403 651.587 1403 853C1403 1054.41 1345.16 1248.91 1240.33 1400M951 673.596C980.35 726.084 996.119 788.873 996.119 853.258C996.119 917.644 980.35 980.433 951 1032.92" stroke="#1E1E1E" stroke-width="89" stroke-linecap="round" stroke-linejoin="round"/>
<path fill-rule="evenodd" clip-rule="evenodd" d="M677.056 472.512L746.056 413L746.056 504.119L746.056 1201.09V1292.4L677.056 1232.6L438.686 1026H544.038L677.056 1141.29L677.056 563.632L543.296 679H437.65L677.056 472.512Z" fill="black"/>
<path d="M544 686H303V1020H544" stroke="black" stroke-width="69"/>
</svg>
