<svg width="16" height="16" viewBox="0 0 16 16" fill="none" xmlns="http://www.w3.org/2000/svg">
<path d="M5.66667 14.3333C5.47778 14.3333 5.31944 14.2694 5.19167 14.1417C5.06389 14.0139 5 13.8556 5 13.6667V3C5 2.81111 5.06389 2.65278 5.19167 2.525C5.31944 2.39722 5.47778 2.33333 5.66667 2.33333H7V1H9.66667V2.33333H11C11.1889 2.33333 11.3472 2.39722 11.475 2.525C11.6028 2.65278 11.6667 2.81111 11.6667 3V13.6667C11.6667 13.8556 11.6028 14.0139 11.475 14.1417C11.3472 14.2694 11.1889 14.3333 11 14.3333H5.66667ZM6.33333 5H10.3333V3.66667H6.33333V5Z" fill="white"/>
</svg>
