<svg width="122" height="70" viewBox="0 0 122 70" fill="none" xmlns="http://www.w3.org/2000/svg">
<g filter="url(#filter0_i_463_62)">
<path d="M6.35175 69.9974C6.75083 66.0646 19.1008 62.263 25.1139 60.9444L1.74512 49.5293C5.23526 57.6747 6.27043 66.5686 6.35175 69.9974Z" fill="#D9D9D9"/>
</g>
<g filter="url(#filter1_i_463_62)">
<path d="M120.562 14.7864C117.72 4.18046 106.819 -2.11359 96.2129 0.728269L14.8792 22.5216C4.27324 25.3634 -2.02082 36.265 0.821042 46.871C3.6629 57.477 14.5645 63.771 25.1705 60.9291L106.504 39.1359C117.11 36.294 123.404 25.3924 120.562 14.7864Z" fill="white"/>
</g>
<path d="M46.8803 30.2312C46.6379 29.3266 45.7081 28.7898 44.8034 29.0322L41.584 29.8948C40.6794 30.1372 40.1425 31.067 40.3849 31.9717L41.52 36.2078C41.7624 37.1124 42.6922 37.6493 43.5968 37.4069L46.8163 36.5442C47.7209 36.3018 48.2578 35.372 48.0154 34.4674L46.8803 30.2312Z" fill="#C5C5C5"/>
<path d="M18.6395 37.7983C18.3971 36.8937 17.4673 36.3568 16.5627 36.5992L13.3432 37.4619C12.4386 37.7043 11.9017 38.6341 12.1441 39.5387L13.2792 43.7749C13.5216 44.6795 14.4514 45.2163 15.3561 44.9739L18.5755 44.1113C19.4802 43.8689 20.017 42.9391 19.7746 42.0344L18.6395 37.7983Z" fill="#C5C5C5"/>
<path d="M32.7597 34.0146C32.5173 33.11 31.5874 32.5731 30.6828 32.8155L27.4633 33.6782C26.5587 33.9206 26.0219 34.8504 26.2643 35.755L27.3993 39.9912C27.6417 40.8958 28.5716 41.4326 29.4762 41.1902L32.6956 40.3276C33.6003 40.0852 34.1371 39.1554 33.8947 38.2507L32.7597 34.0146Z" fill="#C5C5C5"/>
<defs>
<filter id="filter0_i_463_62" x="1.74512" y="49.5293" width="24.3691" height="24.4683" filterUnits="userSpaceOnUse" color-interpolation-filters="sRGB">
<feFlood flood-opacity="0" result="BackgroundImageFix"/>
<feBlend mode="normal" in="SourceGraphic" in2="BackgroundImageFix" result="shape"/>
<feColorMatrix in="SourceAlpha" type="matrix" values="0 0 0 0 0 0 0 0 0 0 0 0 0 0 0 0 0 0 127 0" result="hardAlpha"/>
<feOffset dx="1" dy="8"/>
<feGaussianBlur stdDeviation="2"/>
<feComposite in2="hardAlpha" operator="arithmetic" k2="-1" k3="1"/>
<feColorMatrix type="matrix" values="0 0 0 0 0.0352941 0 0 0 0 0.0352941 0 0 0 0 0.0352941 0 0 0 0.25 0"/>
<feBlend mode="normal" in2="shape" result="effect1_innerShadow_463_62"/>
</filter>
<filter id="filter1_i_463_62" x="0.138672" y="-3.9541" width="123.106" height="65.5654" filterUnits="userSpaceOnUse" color-interpolation-filters="sRGB">
<feFlood flood-opacity="0" result="BackgroundImageFix"/>
<feBlend mode="normal" in="SourceGraphic" in2="BackgroundImageFix" result="shape"/>
<feColorMatrix in="SourceAlpha" type="matrix" values="0 0 0 0 0 0 0 0 0 0 0 0 0 0 0 0 0 0 127 0" result="hardAlpha"/>
<feOffset dx="2" dy="-4"/>
<feGaussianBlur stdDeviation="2"/>
<feComposite in2="hardAlpha" operator="arithmetic" k2="-1" k3="1"/>
<feColorMatrix type="matrix" values="0 0 0 0 0 0 0 0 0 0 0 0 0 0 0 0 0 0 0.25 0"/>
<feBlend mode="normal" in2="shape" result="effect1_innerShadow_463_62"/>
</filter>
</defs>
</svg>
