<svg width="1189" height="988" viewBox="0 0 1189 988" fill="none" xmlns="http://www.w3.org/2000/svg">
<g filter="url(#filter0_i_82_68)">
<path d="M0.000241436 721.063C39.5398 666.228 254.953 715.528 355.286 747.416L106.793 378.531C88.8339 529.011 28.1149 669.585 0.000241436 721.063Z" fill="#D9D9D9"/>
</g>
<g filter="url(#filter1_i_82_68)">
<rect width="1020" height="680" rx="340" transform="matrix(-0.965926 -0.258819 -0.258819 0.965926 1188.59 266.713)" fill="white"/>
</g>
<rect width="115" height="133" rx="29" transform="matrix(-0.965926 -0.258819 -0.258819 0.965926 947.782 450.653)" fill="#C5C5C5"/>
<rect width="115" height="133" rx="29" transform="matrix(-0.965926 -0.258819 -0.258819 0.965926 464.819 321.244)" fill="#C5C5C5"/>
<rect width="115" height="133" rx="29" transform="matrix(-0.965926 -0.258819 -0.258819 0.965926 706.301 385.948)" fill="#C5C5C5"/>
<defs>
<filter id="filter0_i_82_68" x="-32" y="362.531" width="387.286" height="384.885" filterUnits="userSpaceOnUse" color-interpolation-filters="sRGB">
<feFlood flood-opacity="0" result="BackgroundImageFix"/>
<feBlend mode="normal" in="SourceGraphic" in2="BackgroundImageFix" result="shape"/>
<feColorMatrix in="SourceAlpha" type="matrix" values="0 0 0 0 0 0 0 0 0 0 0 0 0 0 0 0 0 0 127 0" result="hardAlpha"/>
<feOffset dx="-46" dy="-16"/>
<feGaussianBlur stdDeviation="16"/>
<feComposite in2="hardAlpha" operator="arithmetic" k2="-1" k3="1"/>
<feColorMatrix type="matrix" values="0 0 0 0 0.0352941 0 0 0 0 0.0352941 0 0 0 0 0.0352941 0 0 0 0.25 0"/>
<feBlend mode="normal" in2="shape" result="effect1_innerShadow_82_68"/>
</filter>
<filter id="filter1_i_82_68" x="67.6821" y="43.0459" width="1044.58" height="804.168" filterUnits="userSpaceOnUse" color-interpolation-filters="sRGB">
<feFlood flood-opacity="0" result="BackgroundImageFix"/>
<feBlend mode="normal" in="SourceGraphic" in2="BackgroundImageFix" result="shape"/>
<feColorMatrix in="SourceAlpha" type="matrix" values="0 0 0 0 0 0 0 0 0 0 0 0 0 0 0 0 0 0 127 0" result="hardAlpha"/>
<feOffset dx="-87" dy="-88"/>
<feGaussianBlur stdDeviation="18"/>
<feComposite in2="hardAlpha" operator="arithmetic" k2="-1" k3="1"/>
<feColorMatrix type="matrix" values="0 0 0 0 0 0 0 0 0 0 0 0 0 0 0 0 0 0 0.25 0"/>
<feBlend mode="normal" in2="shape" result="effect1_innerShadow_82_68"/>
</filter>
</defs>
</svg>
