<svg width="1748" height="1748" viewBox="0 0 1748 1748" fill="none" xmlns="http://www.w3.org/2000/svg">
<path d="M1592.46 465.606C1678.13 379.932 1678.13 241.026 1592.46 155.352C1592.32 155.22 1592.19 155.089 1592.06 154.957C1506.39 69.7204 1367.84 70.0743 1282.6 155.748L299.732 1143.65L609.986 1448.08L1592.46 465.606Z" fill="white"/>
<path d="M154.368 1590.83L568.04 1487.41L257.786 1182.99L154.368 1590.83Z" fill="white"/>
<path d="M1592.46 465.606C1678.13 379.932 1678.13 241.026 1592.46 155.352C1592.32 155.22 1592.19 155.089 1592.06 154.957C1506.39 69.7204 1367.84 70.0743 1282.6 155.748L299.732 1143.65L609.986 1448.08L1592.46 465.606Z" stroke="white" stroke-width="38" stroke-linecap="round" stroke-linejoin="round"/>
<path d="M154.368 1590.83L568.04 1487.41L257.786 1182.99L154.368 1590.83Z" stroke="white" stroke-width="38" stroke-linecap="round" stroke-linejoin="round"/>
</svg>
