<svg width="65" height="70" viewBox="0 0 65 70" fill="none" xmlns="http://www.w3.org/2000/svg">
<path d="M64.4964 37.2907V37.3854C64.4964 41.8073 63.5673 46.0114 61.8954 49.814L61.9729 49.6161C57.0347 61.1184 45.8076 69.0247 32.7309 69.0247C19.6542 69.0247 8.4272 61.1156 3.56932 49.8226L3.48903 49.6161C1.89459 46.0114 0.965454 41.8073 0.965454 37.3854C0.965454 37.3509 0.965454 37.3194 0.965454 37.285V37.2907C0.965454 37.2592 0.965454 37.2248 0.965454 37.1875C0.965454 26.8781 5.9237 17.7302 13.5833 11.9919L13.6665 11.9345C14.5411 11.2549 15.6538 10.8448 16.8611 10.8448C17.1278 10.8448 17.3888 10.8649 17.6469 10.9022L17.6182 10.8993C19.0549 11.0685 20.2823 11.8399 21.0594 12.9497L21.0709 12.964C21.7419 13.81 22.1463 14.8969 22.1463 16.0755C22.1463 16.3537 22.1233 16.629 22.0803 16.8928L22.0832 16.8641C21.8968 18.3037 21.1397 19.5368 20.05 20.3484L20.0356 20.357C14.8422 24.2685 11.5215 30.4197 11.5215 37.3481C11.5215 49.0626 21.0193 58.5604 32.7338 58.5604C44.4484 58.5604 53.9462 49.0626 53.9462 37.3481C53.9462 30.4197 50.6254 24.2656 45.4865 20.3942L45.432 20.3541C44.3308 19.5311 43.5737 18.298 43.3873 16.887L43.3844 16.8612C43.3443 16.6232 43.3214 16.3508 43.3214 16.0726C43.3214 14.894 43.7257 13.81 44.4053 12.9526L44.3967 12.964C45.1911 11.837 46.4271 11.0656 47.8466 10.9022L47.8695 10.8993C48.0989 10.862 48.3628 10.8419 48.6352 10.8419C49.8339 10.8419 50.938 11.252 51.8126 11.9431L51.8011 11.9345C59.5497 17.7302 64.5108 26.8838 64.5108 37.1961V37.2936V37.2879L64.4964 37.2907ZM38.0276 5.52523V31.9941V32.1031C38.0276 35.0281 35.656 37.3968 32.7338 37.3968C29.8116 37.3968 27.44 35.0252 27.44 32.1031C27.44 32.0629 27.44 32.0256 27.44 31.9883V31.9941V5.52523C27.44 5.51089 27.44 5.49655 27.44 5.47935C27.44 4.03403 28.0423 2.72922 29.0087 1.80296L29.0115 1.80009C29.955 0.830808 31.2742 0.228592 32.7338 0.228592C34.1935 0.228592 35.5126 0.830808 36.4561 1.80009C37.4254 2.72922 38.0276 4.03116 38.0276 5.47648V5.52523Z" fill="black"/>
</svg>
