<svg width="49" height="49" viewBox="0 0 49 49" fill="none" xmlns="http://www.w3.org/2000/svg">
<g clip-path="url(#clip0_449_176)">
<path d="M24.4258 4.74497C30.8383 4.74497 31.5977 4.7731 34.1195 4.8856C36.4633 4.98872 37.7289 5.38247 38.5727 5.7106C39.6883 6.14185 40.4945 6.66685 41.3289 7.50122C42.1727 8.34497 42.6883 9.14185 43.1195 10.2575C43.4477 11.1012 43.8414 12.3762 43.9445 14.7106C44.057 17.2418 44.0852 18.0012 44.0852 24.4043C44.0852 30.8168 44.057 31.5762 43.9445 34.0981C43.8414 36.4418 43.4477 37.7075 43.1195 38.5512C42.6883 39.6668 42.1633 40.4731 41.3289 41.3075C40.4852 42.1512 39.6883 42.6668 38.5727 43.0981C37.7289 43.4262 36.4539 43.82 34.1195 43.9231C31.5883 44.0356 30.8289 44.0637 24.4258 44.0637C18.0133 44.0637 17.2539 44.0356 14.732 43.9231C12.3883 43.82 11.1227 43.4262 10.2789 43.0981C9.16328 42.6668 8.35703 42.1418 7.52266 41.3075C6.67891 40.4637 6.16328 39.6668 5.73203 38.5512C5.40391 37.7075 5.01016 36.4325 4.90703 34.0981C4.79453 31.5668 4.76641 30.8075 4.76641 24.4043C4.76641 17.9918 4.79453 17.2325 4.90703 14.7106C5.01016 12.3668 5.40391 11.1012 5.73203 10.2575C6.16328 9.14185 6.68828 8.3356 7.52266 7.50122C8.36641 6.65747 9.16328 6.14185 10.2789 5.7106C11.1227 5.38247 12.3977 4.98872 14.732 4.8856C17.2539 4.7731 18.0133 4.74497 24.4258 4.74497ZM24.4258 0.423096C17.9102 0.423096 17.0945 0.451221 14.5352 0.563721C11.9852 0.676221 10.232 1.08872 8.71328 1.67935C7.12891 2.2981 5.78828 3.11372 4.45703 4.45435C3.11641 5.7856 2.30078 7.12622 1.68203 8.70122C1.09141 10.2293 0.678906 11.9731 0.566406 14.5231C0.453906 17.0918 0.425781 17.9075 0.425781 24.4231C0.425781 30.9387 0.453906 31.7543 0.566406 34.3137C0.678906 36.8637 1.09141 38.6168 1.68203 40.1356C2.30078 41.72 3.11641 43.0606 4.45703 44.3918C5.78828 45.7231 7.12891 46.5481 8.70391 47.1575C10.232 47.7481 11.9758 48.1606 14.5258 48.2731C17.0852 48.3856 17.9008 48.4137 24.4164 48.4137C30.932 48.4137 31.7477 48.3856 34.307 48.2731C36.857 48.1606 38.6102 47.7481 40.1289 47.1575C41.7039 46.5481 43.0445 45.7231 44.3758 44.3918C45.707 43.0606 46.532 41.72 47.1414 40.145C47.732 38.6168 48.1445 36.8731 48.257 34.3231C48.3695 31.7637 48.3977 30.9481 48.3977 24.4325C48.3977 17.9168 48.3695 17.1012 48.257 14.5418C48.1445 11.9918 47.732 10.2387 47.1414 8.71997C46.5508 7.12622 45.7352 5.7856 44.3945 4.45435C43.0633 3.1231 41.7227 2.2981 40.1477 1.68872C38.6195 1.0981 36.8758 0.685596 34.3258 0.573096C31.757 0.451221 30.9414 0.423096 24.4258 0.423096Z" fill="white"/>
<path d="M24.4258 12.095C17.6195 12.095 12.0977 17.6168 12.0977 24.4231C12.0977 31.2293 17.6195 36.7512 24.4258 36.7512C31.232 36.7512 36.7539 31.2293 36.7539 24.4231C36.7539 17.6168 31.232 12.095 24.4258 12.095ZM24.4258 32.42C20.0102 32.42 16.4289 28.8387 16.4289 24.4231C16.4289 20.0075 20.0102 16.4262 24.4258 16.4262C28.8414 16.4262 32.4227 20.0075 32.4227 24.4231C32.4227 28.8387 28.8414 32.42 24.4258 32.42Z" fill="white"/>
<path d="M40.1195 11.6074C40.1195 13.2011 38.8258 14.4855 37.2414 14.4855C35.6477 14.4855 34.3633 13.1918 34.3633 11.6074C34.3633 10.0136 35.657 8.72925 37.2414 8.72925C38.8258 8.72925 40.1195 10.023 40.1195 11.6074Z" fill="white"/>
</g>
<defs>
<clipPath id="clip0_449_176">
<rect width="48" height="48" fill="white" transform="translate(0.425781 0.423096)"/>
</clipPath>
</defs>
</svg>
