<svg width="49" height="49" viewBox="0 0 49 49" fill="none" xmlns="http://www.w3.org/2000/svg">
<g clip-path="url(#clip0_449_175)">
<path d="M44.8727 0.423096H3.96953C2.01016 0.423096 0.425781 1.96997 0.425781 3.88247V44.9543C0.425781 46.8668 2.01016 48.4231 3.96953 48.4231H44.8727C46.832 48.4231 48.4258 46.8668 48.4258 44.9637V3.88247C48.4258 1.96997 46.832 0.423096 44.8727 0.423096ZM14.6664 41.3262H7.54141V18.4137H14.6664V41.3262ZM11.1039 15.2918C8.81641 15.2918 6.96953 13.445 6.96953 11.1668C6.96953 8.88872 8.81641 7.04185 11.1039 7.04185C13.382 7.04185 15.2289 8.88872 15.2289 11.1668C15.2289 13.4356 13.382 15.2918 11.1039 15.2918ZM41.3289 41.3262H34.2133V30.1887C34.2133 27.5356 34.1664 24.1137 30.5102 24.1137C26.807 24.1137 26.2445 27.0106 26.2445 30.0012V41.3262H19.1383V18.4137H25.9633V21.545H26.057C27.0039 19.745 29.3289 17.8418 32.7883 17.8418C39.9977 17.8418 41.3289 22.5856 41.3289 28.7543V41.3262V41.3262Z" fill="white"/>
</g>
<defs>
<clipPath id="clip0_449_175">
<rect width="48" height="48" fill="white" transform="translate(0.425781 0.423096)"/>
</clipPath>
</defs>
</svg>
