<svg width="87" height="87" viewBox="0 0 87 87" fill="none" xmlns="http://www.w3.org/2000/svg">
<path d="M50.923 16.4166L36.45 16.6161C29.3409 16.7142 23.6293 22.5051 23.6293 29.6149V58.2C23.6293 65.4498 29.5594 71.2987 36.8085 71.1987L50.923 71.0041" stroke="#DEDEDE" stroke-width="4" stroke-linecap="round"/>
<path d="M34.2286 41.7105C33.1241 41.7105 32.2286 42.6059 32.2286 43.7105C32.2286 44.8151 33.1241 45.7105 34.2286 45.7105V41.7105ZM64.506 45.1247C65.2871 44.3437 65.2871 43.0773 64.506 42.2963L51.7781 29.5684C50.997 28.7873 49.7307 28.7873 48.9497 29.5684C48.1686 30.3494 48.1686 31.6158 48.9497 32.3968L60.2634 43.7105L48.9497 55.0242C48.1686 55.8053 48.1686 57.0716 48.9497 57.8526C49.7307 58.6337 50.997 58.6337 51.7781 57.8526L64.506 45.1247ZM34.2286 45.7105H63.0918V41.7105H34.2286V45.7105Z" fill="#DEDEDE"/>
</svg>
