<svg width="48" height="55" viewBox="0 0 48 55" fill="none" xmlns="http://www.w3.org/2000/svg">
<g filter="url(#filter0_i_126_13)">
<path fill-rule="evenodd" clip-rule="evenodd" d="M21.7868 45.4714V27.9116C21.7868 26.8835 22.6203 26.05 23.6485 26.05C24.6767 26.05 25.5102 26.8835 25.5102 27.9116V45.4714L41.1099 50.6713C42.6254 51.1765 44.0315 49.6638 43.4171 48.1892L25.367 4.86897C24.7305 3.34145 22.5666 3.34145 21.9301 4.86897L3.88 48.1892C3.26558 49.6638 4.67169 51.1765 6.18716 50.6713L21.7868 45.4714ZM39.9325 54.2036L23.6485 48.7756L7.36458 54.2036C2.81813 55.7191 -1.40014 51.1809 0.443076 46.7571L18.4932 3.43692C20.4026 -1.14564 26.8945 -1.14564 28.8039 3.43692L46.854 46.7571C48.6972 51.1809 44.4789 55.7191 39.9325 54.2036Z" fill="url(#paint0_linear_126_13)"/>
</g>
<defs>
<filter id="filter0_i_126_13" x="-1" y="0" width="48.2971" height="55.5016" filterUnits="userSpaceOnUse" color-interpolation-filters="sRGB">
<feFlood flood-opacity="0" result="BackgroundImageFix"/>
<feBlend mode="normal" in="SourceGraphic" in2="BackgroundImageFix" result="shape"/>
<feColorMatrix in="SourceAlpha" type="matrix" values="0 0 0 0 0 0 0 0 0 0 0 0 0 0 0 0 0 0 127 0" result="hardAlpha"/>
<feOffset dx="-1" dy="1"/>
<feGaussianBlur stdDeviation="1"/>
<feComposite in2="hardAlpha" operator="arithmetic" k2="-1" k3="1"/>
<feColorMatrix type="matrix" values="0 0 0 0 0 0 0 0 0 0 0 0 0 0 0 0 0 0 0.25 0"/>
<feBlend mode="normal" in2="shape" result="effect1_innerShadow_126_13"/>
</filter>
<linearGradient id="paint0_linear_126_13" x1="49.2971" y1="60.4319" x2="12.7971" y2="-0.0681462" gradientUnits="userSpaceOnUse">
<stop offset="0.24381" stop-color="#2F2D2D"/>
<stop offset="0.703838" stop-color="#515050"/>
</linearGradient>
</defs>
</svg>
