<svg width="87" height="87" viewBox="0 0 87 87" fill="none" xmlns="http://www.w3.org/2000/svg">
<path d="M43.4754 85.2445C22.7758 85.2445 5.99536 68.4773 5.99536 47.7938C5.99536 34.0653 13.388 22.0621 24.4125 15.5421C27.6349 13.6363 31.3357 16.2431 31.3357 19.9868C31.3357 22.0584 30.1356 23.9131 28.409 25.0579C21.0308 29.9501 16.1904 38.3144 16.1904 47.7938C16.1904 62.8511 28.4063 75.0574 43.4754 75.0574C58.5445 75.0574 70.7605 62.8511 70.7605 47.7938C70.7605 38.3021 65.9063 29.9434 58.5432 25.0608C56.816 23.9156 55.6152 22.0603 55.6152 19.9879C55.6152 16.2437 59.3165 13.6365 62.5393 15.5426C73.5633 22.0628 80.9555 34.0657 80.9555 47.7938C80.9555 68.4773 64.1751 85.2445 43.4754 85.2445Z" fill="white"/>
<path d="M43.4754 85.2445C22.7758 85.2445 5.99536 68.4773 5.99536 47.7938C5.99536 34.0653 13.388 22.0621 24.4125 15.5421C27.6349 13.6363 31.3357 16.2431 31.3357 19.9868C31.3357 22.0584 30.1356 23.9131 28.409 25.0579C21.0308 29.9501 16.1904 38.3144 16.1904 47.7938C16.1904 62.8511 28.4063 75.0574 43.4754 75.0574C58.5445 75.0574 70.7605 62.8511 70.7605 47.7938C70.7605 38.3021 65.9063 29.9434 58.5432 25.0608C56.816 23.9156 55.6152 22.0603 55.6152 19.9879C55.6152 16.2437 59.3165 13.6365 62.5393 15.5426C73.5633 22.0628 80.9555 34.0657 80.9555 47.7938C80.9555 68.4773 64.1751 85.2445 43.4754 85.2445Z" stroke="white"/>
<path fill-rule="evenodd" clip-rule="evenodd" d="M43.4493 1.55252C46.0524 1.552 48.1631 3.66182 48.1636 6.26494L48.171 43.3623C48.1716 45.9654 46.0617 48.076 43.4586 48.0766C40.8555 48.0771 38.7448 45.9673 38.7443 43.3641L38.7368 6.26683C38.7363 3.66371 40.8461 1.55304 43.4493 1.55252Z" fill="white"/>
</svg>
