<svg width="23" height="24" viewBox="0 0 23 24" fill="none" xmlns="http://www.w3.org/2000/svg">
<g style="mix-blend-mode:darken">
<mask id="path-1-inside-1_188_55" fill="white">
<path fill-rule="evenodd" clip-rule="evenodd" d="M9.62193 0C8.51736 0 7.62193 0.895429 7.62193 2V4.28592C7.22278 4.47554 6.84144 4.69658 6.48113 4.94586L4.50035 3.80225C3.54376 3.24997 2.32058 3.57772 1.7683 4.5343L0.268287 7.1324C-0.283998 8.08899 0.0437506 9.31217 1.00034 9.86445L2.98141 11.0082C2.96408 11.2254 2.95525 11.445 2.95525 11.6667C2.95525 11.8884 2.96408 12.108 2.98141 12.3252L1.00033 13.469C0.0437494 14.0212 -0.284002 15.2444 0.268283 16.201L1.7683 18.7991C2.32058 19.7557 3.54376 20.0834 4.50035 19.5312L6.48112 18.3876C6.84144 18.6368 7.22278 18.8579 7.62193 19.0475V21.3334C7.62193 22.438 8.51736 23.3334 9.62193 23.3334H12.622C13.7265 23.3334 14.622 22.438 14.622 21.3334V19.0475C15.0211 18.8579 15.4025 18.6368 15.7628 18.3876L17.7436 19.5312C18.7001 20.0834 19.9233 19.7557 20.4756 18.7991L21.9756 16.201C22.5279 15.2444 22.2002 14.0212 21.2436 13.469L19.2625 12.3252C19.2798 12.108 19.2886 11.8884 19.2886 11.6667C19.2886 11.445 19.2798 11.2254 19.2625 11.0082L21.2436 9.86445C22.2002 9.31217 22.5279 8.08899 21.9756 7.1324L20.4756 4.53431C19.9233 3.57772 18.7001 3.24997 17.7436 3.80225L15.7628 4.94586C15.4025 4.69659 15.0211 4.47554 14.622 4.28592V2C14.622 0.89543 13.7265 0 12.622 0H9.62193Z"/>
</mask>
<path d="M7.62193 4.28592L8.26557 5.64081L9.12193 5.234V4.28592H7.62193ZM6.48113 4.94586L5.73113 6.24489L6.55355 6.71972L7.33453 6.17942L6.48113 4.94586ZM4.50035 3.80225L5.25035 2.50322L5.25035 2.50321L4.50035 3.80225ZM1.7683 4.5343L3.06734 5.2843L3.06734 5.2843L1.7683 4.5343ZM0.268287 7.1324L1.56732 7.8824L1.56732 7.8824L0.268287 7.1324ZM1.00034 9.86445L0.250335 11.1635L0.250336 11.1635L1.00034 9.86445ZM2.98141 11.0082L4.47666 11.1275L4.55202 10.183L3.73141 9.70919L2.98141 11.0082ZM2.98141 12.3252L3.73141 13.6242L4.55202 13.1504L4.47666 12.2059L2.98141 12.3252ZM1.00033 13.469L0.250335 12.1699L0.250334 12.1699L1.00033 13.469ZM0.268283 16.201L-1.03076 16.951L-1.03076 16.951L0.268283 16.201ZM1.7683 18.7991L0.469258 19.5491L0.469258 19.5491L1.7683 18.7991ZM4.50035 19.5312L5.25034 20.8302L5.25035 20.8302L4.50035 19.5312ZM6.48112 18.3876L7.33453 17.154L6.55355 16.6137L5.73112 17.0885L6.48112 18.3876ZM7.62193 19.0475H9.12193V18.0994L8.26557 17.6926L7.62193 19.0475ZM14.622 19.0475L13.9783 17.6926L13.122 18.0994V19.0475H14.622ZM15.7628 18.3876L16.5128 17.0885L15.6903 16.6137L14.9094 17.154L15.7628 18.3876ZM17.7436 19.5312L18.4936 18.2321L18.4936 18.2321L17.7436 19.5312ZM20.4756 18.7991L19.1766 18.0491L19.1766 18.0491L20.4756 18.7991ZM21.9756 16.201L23.2747 16.951L23.2747 16.951L21.9756 16.201ZM21.2436 13.469L20.4936 14.768L20.4936 14.768L21.2436 13.469ZM19.2625 12.3252L17.7672 12.2059L17.6919 13.1504L18.5125 13.6242L19.2625 12.3252ZM19.2625 11.0082L18.5125 9.7092L17.6919 10.183L17.7672 11.1275L19.2625 11.0082ZM21.2436 9.86445L20.4936 8.56541L20.4936 8.56541L21.2436 9.86445ZM21.9756 7.1324L23.2747 6.3824L23.2747 6.3824L21.9756 7.1324ZM20.4756 4.53431L19.1766 5.2843L19.1766 5.28431L20.4756 4.53431ZM17.7436 3.80225L16.9936 2.50322L16.9936 2.50322L17.7436 3.80225ZM15.7628 4.94586L14.9094 6.17943L15.6903 6.71973L16.5128 6.2449L15.7628 4.94586ZM14.622 4.28592H13.122V5.234L13.9783 5.64081L14.622 4.28592ZM9.12193 2C9.12193 1.72386 9.34579 1.5 9.62193 1.5V-1.5C7.68894 -1.5 6.12193 0.0670004 6.12193 2H9.12193ZM9.12193 4.28592V2H6.12193V4.28592H9.12193ZM7.33453 6.17942C7.62884 5.97582 7.94007 5.79544 8.26557 5.64081L6.9783 2.93103C6.50548 3.15564 6.05405 3.41734 5.62772 3.71229L7.33453 6.17942ZM3.75035 5.10129L5.73113 6.24489L7.23113 3.64682L5.25035 2.50322L3.75035 5.10129ZM3.06734 5.2843C3.20541 5.04516 3.5112 4.96322 3.75035 5.10129L5.25035 2.50321C3.57633 1.53672 1.43576 2.11028 0.469261 3.7843L3.06734 5.2843ZM1.56732 7.8824L3.06734 5.2843L0.469262 3.7843L-1.03075 6.3824L1.56732 7.8824ZM1.75034 8.56541C1.51119 8.42734 1.42925 8.12155 1.56732 7.8824L-1.03075 6.3824C-1.99725 8.05642 -1.42369 10.197 0.250335 11.1635L1.75034 8.56541ZM3.73141 9.70919L1.75034 8.56541L0.250336 11.1635L2.23141 12.3073L3.73141 9.70919ZM4.45525 11.6667C4.45525 11.4849 4.46249 11.3051 4.47666 11.1275L1.48616 10.8889C1.46567 11.1458 1.45525 11.4052 1.45525 11.6667H4.45525ZM4.47666 12.2059C4.46249 12.0283 4.45525 11.8485 4.45525 11.6667H1.45525C1.45525 11.9282 1.46567 12.1876 1.48616 12.4445L4.47666 12.2059ZM1.75033 14.768L3.73141 13.6242L2.23141 11.0261L0.250335 12.1699L1.75033 14.768ZM1.56732 15.451C1.42925 15.2119 1.51119 14.9061 1.75034 14.768L0.250334 12.1699C-1.42369 13.1364 -1.99725 15.277 -1.03076 16.951L1.56732 15.451ZM3.06733 18.0491L1.56732 15.451L-1.03076 16.951L0.469258 19.5491L3.06733 18.0491ZM3.75035 18.2321C3.5112 18.3702 3.20541 18.2883 3.06733 18.0491L0.469258 19.5491C1.43576 21.2231 3.57632 21.7967 5.25034 20.8302L3.75035 18.2321ZM5.73112 17.0885L3.75034 18.2321L5.25035 20.8302L7.23112 19.6866L5.73112 17.0885ZM8.26557 17.6926C7.94007 17.538 7.62884 17.3576 7.33453 17.154L5.62772 19.6211C6.05404 19.9161 6.50548 20.1778 6.9783 20.4024L8.26557 17.6926ZM9.12193 21.3334V19.0475H6.12193V21.3334H9.12193ZM9.62193 21.8334C9.34579 21.8334 9.12193 21.6096 9.12193 21.3334H6.12193C6.12193 23.2664 7.68893 24.8334 9.62193 24.8334V21.8334ZM12.622 21.8334H9.62193V24.8334H12.622V21.8334ZM13.122 21.3334C13.122 21.6096 12.8981 21.8334 12.622 21.8334V24.8334C14.555 24.8334 16.122 23.2664 16.122 21.3334H13.122ZM13.122 19.0475V21.3334H16.122V19.0475H13.122ZM14.9094 17.154C14.6151 17.3576 14.3038 17.538 13.9783 17.6926L15.2656 20.4024C15.7384 20.1778 16.1899 19.9161 16.6162 19.6211L14.9094 17.154ZM18.4936 18.2321L16.5128 17.0885L15.0128 19.6866L16.9936 20.8302L18.4936 18.2321ZM19.1766 18.0491C19.0385 18.2883 18.7327 18.3702 18.4936 18.2321L16.9936 20.8302C18.6676 21.7967 20.8082 21.2231 21.7747 19.5491L19.1766 18.0491ZM20.6766 15.451L19.1766 18.0491L21.7747 19.5491L23.2747 16.951L20.6766 15.451ZM20.4936 14.768C20.7327 14.9061 20.8147 15.2119 20.6766 15.451L23.2747 16.951C24.2412 15.277 23.6676 13.1364 21.9936 12.1699L20.4936 14.768ZM18.5125 13.6242L20.4936 14.768L21.9936 12.1699L20.0125 11.0261L18.5125 13.6242ZM17.7886 11.6667C17.7886 11.8485 17.7814 12.0283 17.7672 12.2059L20.7577 12.4445C20.7782 12.1876 20.7886 11.9282 20.7886 11.6667H17.7886ZM17.7672 11.1275C17.7814 11.3051 17.7886 11.4849 17.7886 11.6667H20.7886C20.7886 11.4052 20.7782 11.1458 20.7577 10.8889L17.7672 11.1275ZM20.4936 8.56541L18.5125 9.7092L20.0125 12.3073L21.9936 11.1635L20.4936 8.56541ZM20.6766 7.8824C20.8147 8.12155 20.7327 8.42734 20.4936 8.56541L21.9936 11.1635C23.6676 10.197 24.2412 8.05643 23.2747 6.3824L20.6766 7.8824ZM19.1766 5.28431L20.6766 7.8824L23.2747 6.3824L21.7747 3.78431L19.1766 5.28431ZM18.4936 5.10129C18.7327 4.96322 19.0385 5.04516 19.1766 5.2843L21.7747 3.78431C20.8082 2.11028 18.6676 1.53672 16.9936 2.50322L18.4936 5.10129ZM16.5128 6.2449L18.4936 5.10129L16.9936 2.50322L15.0128 3.64682L16.5128 6.2449ZM13.9783 5.64081C14.3038 5.79544 14.6151 5.97582 14.9094 6.17943L16.6162 3.71229C16.1899 3.41735 15.7384 3.15564 15.2656 2.93103L13.9783 5.64081ZM13.122 2V4.28592H16.122V2H13.122ZM12.622 1.5C12.8981 1.5 13.122 1.72386 13.122 2H16.122C16.122 0.0670048 14.555 -1.5 12.622 -1.5V1.5ZM9.62193 1.5H12.622V-1.5H9.62193V1.5Z" fill="#2A2E3B" mask="url(#path-1-inside-1_188_55)"/>
</g>
</svg>
