<svg width="49" height="49" viewBox="0 0 49 49" fill="none" xmlns="http://www.w3.org/2000/svg">
<path d="M0.425781 48.4231L3.79978 36.0971C1.71778 32.4891 0.623781 28.3991 0.625781 24.2051C0.631781 11.0931 11.3018 0.423096 24.4118 0.423096C30.7738 0.425096 36.7458 2.9031 41.2378 7.3991C45.7278 11.8951 48.1998 17.8711 48.1978 24.2271C48.1918 37.3411 37.5218 48.0111 24.4118 48.0111C20.4318 48.0091 16.5098 47.0111 13.0358 45.1151L0.425781 48.4231ZM13.6198 40.8091C16.9718 42.7991 20.1718 43.9911 24.4038 43.9931C35.2998 43.9931 44.1758 35.1251 44.1818 24.2231C44.1858 13.2991 35.3518 4.4431 24.4198 4.4391C13.5158 4.4391 4.64578 13.3071 4.64178 24.2071C4.63978 28.6571 5.94378 31.9891 8.13378 35.4751L6.13578 42.7711L13.6198 40.8091ZM36.3938 29.8811C36.2458 29.6331 35.8498 29.4851 35.2538 29.1871C34.6598 28.8891 31.7378 27.4511 31.1918 27.2531C30.6478 27.0551 30.2518 26.9551 29.8538 27.5511C29.4578 28.1451 28.3178 29.4851 27.9718 29.8811C27.6258 30.2771 27.2778 30.3271 26.6838 30.0291C26.0898 29.7311 24.1738 29.1051 21.9038 27.0791C20.1378 25.5031 18.9438 23.5571 18.5978 22.9611C18.2518 22.3671 18.5618 22.0451 18.8578 21.7491C19.1258 21.4831 19.4518 21.0551 19.7498 20.7071C20.0518 20.3631 20.1498 20.1151 20.3498 19.7171C20.5478 19.3211 20.4498 18.9731 20.2998 18.6751C20.1498 18.3791 18.9618 15.4531 18.4678 14.2631C17.9838 13.1051 17.4938 13.2611 17.1298 13.2431L15.9898 13.2231C15.5938 13.2231 14.9498 13.3711 14.4058 13.9671C13.8618 14.5631 12.3258 15.9991 12.3258 18.9251C12.3258 21.8511 14.4558 24.6771 14.7518 25.0731C15.0498 25.4691 18.9418 31.4731 24.9038 34.0471C26.3218 34.6591 27.4298 35.0251 28.2918 35.2991C29.7158 35.7511 31.0118 35.6871 32.0358 35.5351C33.1778 35.3651 35.5518 34.0971 36.0478 32.7091C36.5438 31.3191 36.5438 30.1291 36.3938 29.8811Z" fill="white"/>
</svg>
