<svg width="34" height="31" viewBox="0 0 34 31" fill="none" xmlns="http://www.w3.org/2000/svg">
<rect x="23.5657" y="0.575317" width="9" height="9" rx="1.5" fill="#E2E2E2" stroke="#7C7C7C"/>
<rect x="23.5657" y="10.5753" width="9" height="9" rx="1.5" fill="#E2E2E2" stroke="#7C7C7C"/>
<rect x="23.5657" y="20.5753" width="9" height="9" rx="1.5" fill="#E2E2E2" stroke="#7C7C7C"/>
<path d="M23.2335 18.6661C25.3027 17.4762 26.0657 16.1337 26.0657 15.0753C26.4021 14.5329 27.5275 14.249 28.0657 15.0753C28.0657 19.2341 22.2033 22.6054 14.9718 22.6054C7.74026 22.6054 1.87793 19.2341 1.87793 15.0753C2.28502 14.4937 3.40175 14.5375 3.87793 15.0753C3.87793 16.1337 4.64091 17.4762 6.71008 18.6661C8.72506 19.8249 11.6417 20.6054 14.9718 20.6054C18.3019 20.6054 21.2185 19.8249 23.2335 18.6661Z" fill="black"/>
<path d="M21.9869 24.8663L20.5059 21.2351" stroke="black" stroke-width="2" stroke-linecap="round"/>
<path d="M28.0656 20.8091L25.8496 18.5846" stroke="black" stroke-width="2" stroke-linecap="round"/>
<path d="M1.87549 20.809L4.09497 18.5811" stroke="black" stroke-width="2" stroke-linecap="round"/>
<path d="M7.1265 24.4586C6.92856 24.9742 7.18566 25.5537 7.70075 25.7529C8.21583 25.9522 8.79385 25.6958 8.99179 25.1802L7.1265 24.4586ZM8.48776 20.9128L7.1265 24.4586L8.99179 25.1802L10.3531 21.6344L8.48776 20.9128Z" fill="black"/>
</svg>
