<svg width="18" height="18" viewBox="0 0 18 18" fill="none" xmlns="http://www.w3.org/2000/svg">
<path d="M7 7L11 11" stroke="#444444" stroke-width="1.5" stroke-linecap="round"/>
<path d="M8.37116 5.10888L8.37901 5.11669L8.38709 5.12426C8.88408 5.59004 9.18869 6.22501 9.24094 6.90414C9.29086 7.55302 9.10696 8.19728 8.72425 8.72119C8.20043 9.10515 7.55569 9.29008 6.9061 9.2407C6.22624 9.18901 5.59044 8.88444 5.12409 8.38705L5.11657 8.37902L5.10881 8.37122C5.09535 8.35768 5.08196 8.34422 5.06866 8.33085C4.72849 7.9888 4.44097 7.6997 4.21041 7.41383C3.97302 7.11949 3.83882 6.87881 3.78238 6.66267C3.69312 6.32079 3.73236 5.76276 4.74742 4.74724C5.76234 3.73185 6.32027 3.69274 6.66215 3.78205C6.87837 3.83854 7.11917 3.97283 7.41361 4.21032C7.69956 4.44096 7.98873 4.72855 8.33076 5.06871C8.34415 5.08202 8.35761 5.09541 8.37116 5.10888Z" stroke="#444444" stroke-width="1.5"/>
<path d="M12.8758 9.61286L12.8834 9.62094L12.8912 9.6288C12.9046 9.64235 12.918 9.65581 12.9313 9.66919C13.2715 10.0112 13.5588 10.3001 13.7892 10.5857C14.0263 10.8797 14.1602 11.12 14.2164 11.3356C14.3054 11.6766 14.2662 12.2337 13.2523 13.249C12.2394 14.2633 11.6804 14.3029 11.3378 14.2135C11.1214 14.1571 10.8807 14.0229 10.5872 13.7858C10.2978 13.5522 10.0051 13.2594 9.65861 12.9129L9.63435 12.8887L9.62576 12.8801L9.61689 12.8718C9.1199 12.406 8.8153 11.771 8.76304 11.0919C8.71314 10.4432 8.8969 9.79915 9.27936 9.27533C9.80318 8.89287 10.4472 8.70911 11.0959 8.75902C11.775 8.81127 12.41 9.11587 12.8758 9.61286Z" stroke="#444444" stroke-width="1.5"/>
</svg>
