<svg width="50" height="50" viewBox="0 0 50 50" fill="none" xmlns="http://www.w3.org/2000/svg">
<path d="M8.39185 11.5574C8.39185 9.90052 9.73499 8.55737 11.3918 8.55737H34.0718C34.8887 8.55737 35.6702 8.89045 36.2359 9.47969L40.7721 14.2045C41.3085 14.7632 41.608 15.5077 41.608 16.2822V38.4427C41.608 40.0995 40.2649 41.4427 38.608 41.4427H11.3918C9.73499 41.4427 8.39185 40.0995 8.39185 38.4427V11.5574Z" fill="#525252"/>
<rect x="18.4125" y="8.55737" width="13.5975" height="8.34454" fill="#D9D9D9"/>
<rect x="28.5826" y="9.16412" width="1.83228" height="5.40662" fill="#AAAAAA"/>
<rect x="17.1016" y="28.4267" width="16.2195" height="13.016" rx="1" fill="#D9D9D9"/>
<rect x="27.333" y="30.6183" width="2" height="7.90955" transform="rotate(90 27.333 30.6183)" fill="#AAAAAA"/>
<rect x="31.4546" y="33.9347" width="2" height="12.0311" transform="rotate(90 31.4546 33.9347)" fill="#AAAAAA"/>
</svg>
