<svg width="32" height="31" viewBox="0 0 32 31" fill="none" xmlns="http://www.w3.org/2000/svg">
<rect x="22.1226" y="0.575317" width="9" height="9" rx="1.5" fill="#E2E2E2" stroke="#7C7C7C"/>
<rect x="22.1226" y="10.5753" width="9" height="9" rx="1.5" fill="#E2E2E2" stroke="#7C7C7C"/>
<rect x="22.1226" y="20.5753" width="9" height="9" rx="1.5" fill="#E2E2E2" stroke="#7C7C7C"/>
<path d="M25.6226 15.0753C25.6226 16.6442 24.5083 18.2567 22.2889 19.533C20.0967 20.7937 17.0016 21.6054 13.5287 21.6054C10.0558 21.6054 6.96069 20.7937 4.76844 19.533C2.54909 18.2567 1.43481 16.6442 1.43481 15.0753C1.43481 13.5065 2.54909 11.894 4.76844 10.6177C6.96069 9.35694 10.0558 8.54529 13.5287 8.54529C17.0016 8.54529 20.0967 9.35694 22.2889 10.6177C24.5083 11.894 25.6226 13.5065 25.6226 15.0753Z" fill="white" stroke="black" stroke-width="2"/>
<circle cx="4.73316" cy="4.73316" r="3.73316" transform="matrix(1 0 0 -1 8.79492 19.8085)" fill="black" stroke="black" stroke-width="2"/>
</svg>
