<svg width="50" height="50" viewBox="0 0 50 50" fill="none" xmlns="http://www.w3.org/2000/svg">
<g clip-path="url(#clip0_37_3)">
<rect x="5.26465" y="1.78357" width="39.4736" height="48.6484" rx="5" fill="#EEEEEE"/>
<path d="M9.76935 15.5258L9.90135 11.5218H22.3753L22.4853 15.5258H20.9673L20.5053 12.6878H17.6013C17.5867 13.6118 17.572 14.5505 17.5573 15.5038C17.5573 16.4425 17.5573 17.3885 17.5573 18.3418V19.2878C17.5573 20.2118 17.5573 21.1431 17.5573 22.0818C17.572 23.0058 17.5867 23.9298 17.6013 24.8538L19.6693 25.0738V26.1078H12.5853V25.0738L14.6533 24.8538C14.6827 23.9445 14.6973 23.0278 14.6973 22.1038C14.6973 21.1651 14.6973 20.2265 14.6973 19.2878V18.3418C14.6973 17.4031 14.6973 16.4645 14.6973 15.5258C14.6973 14.5725 14.6827 13.6265 14.6533 12.6878H11.7713L11.3093 15.5258H9.76935Z" fill="black"/>
<rect x="23.8856" y="7.83496" width="16.7849" height="4.34515" fill="#BBBBBB"/>
<rect x="23.8856" y="15.7626" width="16.7849" height="4.34515" fill="#BBBBBB"/>
<rect x="23.8856" y="23.6908" width="16.7849" height="4.34515" fill="#BBBBBB"/>
<rect x="9.32935" y="31.619" width="31.3413" height="4.34515" fill="#BBBBBB"/>
<rect x="9.32935" y="39.5471" width="31.3413" height="4.34515" fill="#BBBBBB"/>
</g>
<defs>
<clipPath id="clip0_37_3">
<rect width="50" height="50" fill="white"/>
</clipPath>
</defs>
</svg>
