<svg width="51" height="50" viewBox="0 0 51 50" fill="none" xmlns="http://www.w3.org/2000/svg">
<path d="M45.9015 25.2636C45.9015 35.549 38.2775 44.0522 28.3734 45.4321C27.4474 45.5605 26.4999 45.6276 25.5382 45.6276C24.4281 45.6276 23.3379 45.5391 22.2763 45.3679C12.5805 43.8068 5.17493 35.3992 5.17493 25.2636C5.17493 14.0164 14.2928 4.89819 25.5396 4.89819C36.7864 4.89819 45.9043 14.0164 45.9043 25.2636H45.9015Z" fill="#525252"/>
<path d="M13.4336 13.8809L22.8255 26.438L13.3751 36.6478H15.5026L23.7772 27.7094L30.4622 36.6478H37.7009L27.7811 23.3843L36.5779 13.8809H34.4504L26.8308 22.1129L20.6737 13.8809H13.435H13.4336ZM16.5614 15.4476H19.8861L34.5703 35.081H31.2456L16.5614 15.4476Z" fill="white"/>
</svg>
