<svg width="50" height="50" viewBox="0 0 50 50" fill="none" xmlns="http://www.w3.org/2000/svg">
<g clip-path="url(#clip0_41_97)">
<path d="M49.6483 16.8878C49.3403 13.9137 48.6775 10.6259 46.2378 8.8981C44.3482 7.55823 41.8645 7.50869 39.5459 7.51145C34.6445 7.51145 29.7405 7.51971 24.8391 7.52246C20.1248 7.52796 15.4105 7.53071 10.6962 7.53621C8.72688 7.53621 6.81255 7.38489 4.98349 8.23779C3.41297 8.96963 2.18351 10.3618 1.44364 11.9108C0.417711 14.065 0.203185 16.5054 0.0794143 18.888C-0.148875 23.2268 -0.12412 27.5765 0.148176 31.9125C0.34896 35.0765 0.857789 38.5734 3.30296 40.5901C5.47032 42.3757 8.52884 42.4637 11.3398 42.4665C20.2623 42.4747 29.1876 42.4829 38.1129 42.4884C39.2571 42.4912 40.4508 42.4692 41.617 42.3426C43.9109 42.095 46.0975 41.4375 47.5717 39.7372C49.0597 38.0231 49.4421 35.6378 49.6676 33.379C50.2177 27.8984 50.2122 22.3656 49.6483 16.8878ZM19.6793 32.6829V17.317L32.9805 24.9986L19.6793 32.6829Z" fill="#525252"/>
</g>
<defs>
<clipPath id="clip0_41_97">
<rect width="50" height="50" fill="white"/>
</clipPath>
</defs>
</svg>
