<svg width="9" height="18" viewBox="0 0 9 18" fill="none" xmlns="http://www.w3.org/2000/svg">
<path d="M7.71429 4.06452C7.71429 2.46111 6.2752 1.16129 4.5 1.16129C2.7248 1.16129 1.28571 2.46111 1.28571 4.06452V14.5161C1.28571 14.8368 0.997897 15.0968 0.642857 15.0968C0.287817 15.0968 0 14.8368 0 14.5161V4.06452C0 1.81975 2.01472 0 4.5 0C6.98528 0 9 1.81975 9 4.06452V15.0968C9 16.7002 7.56091 18 5.78571 18C4.01051 18 2.57143 16.7002 2.57143 15.0968L2.57143 3.93052C2.57143 3.04248 3.43488 2.32258 4.5 2.32258C5.56512 2.32258 6.42857 3.04248 6.42857 3.93052L6.42857 13.3546V13.3546V14.5161C6.42857 14.8368 6.14075 15.0968 5.78571 15.0968C5.43067 15.0968 5.14286 14.8368 5.14286 14.5161L5.14286 3.93052C5.14286 3.63451 4.85504 3.39454 4.5 3.39454C4.14496 3.39454 3.85714 3.63451 3.85714 3.93052V15.0968C3.85714 16.0588 4.72059 16.8387 5.78571 16.8387C6.85083 16.8387 7.71429 16.0588 7.71429 15.0968V4.06452Z" fill="white"/>
</svg>
